<svg width="100" height="50" viewBox="0 0 100 50" fill="none" xmlns="http://www.w3.org/2000/svg">
<g style="mix-blend-mode:overlay">
<path d="M100 0H0V50H100V0Z" fill="#232323"/>
</g>
<path d="M57.0544 34.5781C54.1353 31.3576 52.3067 30.9303 48.4299 34.5781C42.937 38.3553 43.0437 39.9187 46.0777 42.212C47.9823 43.6107 50.3652 43.5015 55.4863 42.7148C58.0944 44.4829 59.6078 44.373 62.3747 42.7148C64.2936 41.0989 64.7765 40.1021 62.3747 37.8236C63.293 35.2661 62.4637 34.4109 57.0544 34.5781Z" fill="url(#paint0_angular_76_53)"/>
<path d="M88.318 23.2226C84.6691 19.197 82.3833 18.6629 77.5373 23.2226C70.6712 27.9442 70.8047 29.8983 74.5972 32.765C76.9779 34.5134 79.9565 34.3769 86.3579 33.3935C89.6181 35.6037 91.5098 35.4662 94.9684 33.3935C97.367 31.3737 97.9706 30.1276 94.9684 27.2795C96.1162 24.0827 95.0797 23.0136 88.318 23.2226Z" fill="url(#paint1_angular_76_53)"/>
<path d="M61.9289 5.86714C57.6962 1.03641 55.0447 0.395442 49.4233 5.86714C41.4586 11.533 41.6134 13.878 46.0127 17.3179C48.7744 19.416 52.2295 19.2523 59.6551 18.0722C63.4369 20.7244 65.6313 20.5595 69.6433 18.0722C72.4258 15.6484 73.1259 14.1531 69.6433 10.7354C70.9748 6.89919 69.7724 5.61629 61.9289 5.86714Z" fill="url(#paint2_angular_76_53)"/>
<defs>
<radialGradient id="paint0_angular_76_53" cx="0" cy="0" r="1" gradientUnits="userSpaceOnUse" gradientTransform="translate(53.6012 42.8333) rotate(90) scale(2.58333 15.0363)">
<stop offset="0.249254" stop-color="#EAEAEA"/>
<stop offset="0.45898" stop-color="white"/>
<stop offset="0.617827" stop-color="#D1D1D1"/>
<stop offset="1" stop-color="white"/>
</radialGradient>
<radialGradient id="paint1_angular_76_53" cx="0" cy="0" r="1" gradientUnits="userSpaceOnUse" gradientTransform="translate(84.0015 33.5417) rotate(90) scale(3.22917 18.7954)">
<stop offset="0.249254" stop-color="#EAEAEA"/>
<stop offset="0.45898" stop-color="white"/>
<stop offset="0.617827" stop-color="#D1D1D1"/>
<stop offset="1" stop-color="white"/>
</radialGradient>
<radialGradient id="paint2_angular_76_53" cx="0" cy="0" r="1" gradientUnits="userSpaceOnUse" gradientTransform="translate(56.9218 18.25) rotate(90) scale(3.875 21.8026)">
<stop offset="0.249254" stop-color="#EAEAEA"/>
<stop offset="0.45898" stop-color="white"/>
<stop offset="0.617827" stop-color="#D1D1D1"/>
<stop offset="1" stop-color="white"/>
</radialGradient>
</defs>
</svg>
