<svg width="46" height="46" viewBox="0 0 46 46" fill="none" xmlns="http://www.w3.org/2000/svg">
<path d="M36.4167 34.5H9.58332C8.52478 34.5 7.66666 35.3581 7.66666 36.4166C7.66666 37.4752 8.52478 38.3333 9.58332 38.3333H36.4167C37.4752 38.3333 38.3333 37.4752 38.3333 36.4166C38.3333 35.3581 37.4752 34.5 36.4167 34.5Z" fill="white"/>
<path d="M7.66666 32.5833V36.4166C7.66666 37.4752 8.52478 38.3333 9.58332 38.3333C10.6419 38.3333 11.5 37.4752 11.5 36.4166V32.5833C11.5 31.5248 10.6419 30.6666 9.58332 30.6666C8.52478 30.6666 7.66666 31.5248 7.66666 32.5833Z" fill="white"/>
<path d="M34.5 32.5833V36.4166C34.5 37.4752 35.3581 38.3333 36.4167 38.3333C37.4752 38.3333 38.3333 37.4752 38.3333 36.4166V32.5833C38.3333 31.5248 37.4752 30.6666 36.4167 30.6666C35.3581 30.6666 34.5 31.5248 34.5 32.5833Z" fill="white"/>
<path d="M23 28.75C22.6027 28.753 22.2142 28.6324 21.8884 28.405L14.2217 23C13.8085 22.7069 13.5281 22.262 13.4419 21.7628C13.3557 21.2636 13.4707 20.7505 13.7617 20.3358C13.9069 20.1285 14.0918 19.9521 14.3056 19.8166C14.5195 19.6811 14.758 19.5894 15.0075 19.5466C15.257 19.5038 15.5124 19.5109 15.7592 19.5674C16.0059 19.6239 16.239 19.7287 16.445 19.8758L23 24.4566L29.5167 19.55C29.9233 19.245 30.4345 19.114 30.9377 19.1859C31.441 19.2578 31.895 19.5266 32.2 19.9333C32.505 20.34 32.636 20.8511 32.5641 21.3544C32.4922 21.8576 32.2234 22.3116 31.8167 22.6166L24.15 28.3666C23.8183 28.6155 23.4147 28.75 23 28.75Z" fill="white"/>
<path d="M23 24.9166C22.4916 24.9166 22.0041 24.7147 21.6447 24.3553C21.2852 23.9958 21.0833 23.5083 21.0833 23V7.66664C21.0833 7.15831 21.2852 6.6708 21.6447 6.31135C22.0041 5.95191 22.4916 5.74997 23 5.74997C23.5083 5.74997 23.9958 5.95191 24.3553 6.31135C24.7147 6.6708 24.9166 7.15831 24.9166 7.66664V23C24.9166 23.5083 24.7147 23.9958 24.3553 24.3553C23.9958 24.7147 23.5083 24.9166 23 24.9166Z" fill="white"/>
</svg>
